<svg xmlns="http://www.w3.org/2000/svg" viewBox="0 0 712.6 731.73"><defs><style>.cls-1{fill:#f4f4f4;}</style></defs><title>151219_timz_icon_white</title><g id="Layer_2" data-name="Layer 2"><g id="logo_master_schwarz"><path class="cls-1" d="M418.53,731.73a287.39,287.39,0,1,1,203.22-84.18A285.51,285.51,0,0,1,418.53,731.73Zm0-527.24a239.85,239.85,0,1,0,169.6,70.25A238.27,238.27,0,0,0,418.53,204.49Z"/><path class="cls-1" d="M425.21,574.78A287.4,287.4,0,0,1,222,84.17,287.39,287.39,0,1,1,628.42,490.6,285.47,285.47,0,0,1,425.21,574.78Zm0-527.23A239.84,239.84,0,0,0,255.61,457,239.84,239.84,0,1,0,594.8,117.8,238.27,238.27,0,0,0,425.21,47.55Z"/><path class="cls-1" d="M287.39,652.77A287.39,287.39,0,0,1,84.17,162.17,287.39,287.39,0,1,1,490.6,568.6,285.5,285.5,0,0,1,287.39,652.77Zm0-527.23A239.85,239.85,0,1,0,457,195.79,238.27,238.27,0,0,0,287.39,125.54Z"/></g></g></svg>