<svg xmlns="http://www.w3.org/2000/svg" viewBox="0 0 1451.63 500.36"><title>151219_timz_font_solo_white</title><g id="Ebene_2" data-name="Ebene 2"><g id="_151219_timz_Logo_fonto_solo" data-name="151219_timz_Logo_fonto_solo"><path d="M1135.86,442.9l.1-.41C1135.78,442.83,1135.72,443,1135.86,442.9Z" style="fill:#f4f4f4"/><path d="M1170.72,394.34c-35.83,19.69-84.44,44-99.32,24.59-37.69-49.27,46.69-206.88-16.14-254.78-9.1-6.94-24.28-12.55-40.61-12.55-30.3,0-79.65,34.3-116.66,71.89a6,6,0,0,1-10.26-3.25c-2.53-14.71-7.59-27.53-15.9-38-18.31-23.17-41.48-32.84-55.36-32-56.8,3.48-74.89,38.26-106.84,73.76a6,6,0,0,1-10.5-4.17c.53-23.52-2.16-43.63-12.7-54.37-18.6-18.92-49.62-25.65-112.35,19.21-3.93,2.81,2.24,8.57,7.24,11.93,9.44,6.34,21.08-3.11,27.72-3.11,35.66,0-11.63,67.87-29.5,167a5.93,5.93,0,0,1-2,3.5c-39.27,33.87-97.27,79.7-120.89,77.1-40.35-4.42,85.11-218.92,42.51-272.88-2.77-3.5-12.67-15.6-27.15-17.19-12.2-1.34-33.86.06-56.92,6.9A193.78,193.78,0,0,0,390.7,167a6,6,0,0,0-3.32,7.15,38.12,38.12,0,0,0,5.34,10c6.19,8.5,19.1-4.25,27.13.85,10.39,6.61-3.15,42.27-21.13,87.28a6.07,6.07,0,0,1-1.14,1.82c-41.44,45.66-131.86,140.4-168.69,140.4-36.59,0,15-132.08,29.05-237.15,18.41-9.1,36.39-18.28,55.82-28,13.8-6.92,37.17-37,18.8-36.39a587.57,587.57,0,0,0-66.47,5.91,6.37,6.37,0,0,1-4.35-5.67C260.13,92,255.1,74.77,245.07,63.9c-4.06-4.4-17.53-16-36.4-16-15.89,0-44.57,1.72-73.3,14.6A244.84,244.84,0,0,0,104,79.39a6.81,6.81,0,0,0-2.64,7.74c1.73,5.5,6.29,11.62,8.94,14.72,9.15,10.73,24-8.72,35.05-2.92,7.88,4.13,7.66,21.46,3.07,47a7.69,7.69,0,0,1-.27.81c-39.33,12.43-82.45,28.71-131.21,49.65-49.79,21.39,24,69.28,47.28,61.18C85.67,250.07,105,243,122.59,236.36c-26.51,94.37-55.37,207.52-10.53,245,9.94,8.31,23.75,18.86,44.88,18.86,43,0,131.78-69,194-131.86,30.82-31.12,16.91-13,10,6.1-16.42,45.21-19.32,88,.4,108.88,6.91,7.32,16.14,14.95,32.36,16.73,37.06.67,109.88-34.49,170.09-92.26,2.41-2.32,12.58-12.11,12.62-7.52.72,74.16,36.3,99.93,79,99.93,37.68,0,3.89-59.75,41.57-170.25,18.47-54.21,55.29-85.82,77.84-82.88,57.77,7.53-80,250.81,75.32,252,2.37,0,7.52-.65,10.43-2.32,27.68-15.89-5.37-36.18,17.22-141.66,11.3-52.69,47.48-107.28,78.65-107.28a19.61,19.61,0,0,1,15.07,7.53c15.07,20.09-17.46,86.13-5,173,2.06,14.41,7.53,42.08,28.56,56.8,11.59,8.12,27.82,15.07,40.57,15.07,41.08,0,84.72-47.9,101.87-61.51l.63-.83-.22.51-.41.32-.74,1-.71,2.75c.13-.23.3-.54.51-.89-4.68,11.14-9.71,26-2.41,41.27,1.83,3.82,7.68,16.44,41.73,17.39,56,1.55,78.74-14.85,129.82-13.91,70.33,1.31,111.27,33.61,138.14-8.68,17.81-28-1.82-70.14-22.56-86.27-11.94-9.29-20.44-16.57-31.85,1.33-5.33,8.36,17.23,33.66-2.5,36.33-44,5.95-52.84-8.34-105.68-9.73-4.76-.13-20.61-.76-5.56-16.69,11-11.62,24.8-25.61,39.71-40.44,2.69-.52,5.3-1.09,7.81-1.73,74.85-19,207.16-86.13,66.51-52.39a118.48,118.48,0,0,1-22,2.65c33.84-33.1,58.71-64.56,66.06-71.52,18-17,24.59-60.53,5.68-78.51-9.67-9.18-35.19-9.62-43.52-7.56-103.1,25.54-69.61,14-207.3-1.77-40.57-4.64-58.49,31.09-59.44,41.49-2.89,31.86,20,58.39,35.94,69.8,6.55,4.68,15.93-1.32,15.93-10.62,0-12-8.23-16.5-1.34-23.88,23.25-24.89,82.76,14.1,151.89,9.16,13.25-.94,7.23,9.26,2.68,13.08-19.09,16-41.32,34.81-64,54.41q-20.81-2.22-44.63-5.07c-18-2.14-30.12,31.19-21.83,39.47,7.53,7.54,24.88,6.32,22.27,9.08-14,14.83-33.71,31.34-54.83,45.57" style="fill:#f4f4f4"/><circle cx="464" cy="47.73" r="47.73" style="fill:#f4f4f4"/></g></g></svg>