<svg xmlns="http://www.w3.org/2000/svg" viewBox="0 0 1580.99 550.45"><title>timz_logo_dark</title><path d="M1237.11,486.3l.12-.46C1237,486.22,1237,486.42,1237.11,486.3Z" transform="translate(-0.07)" style="fill:#1b1464"/><path d="M1275.09,432.08c-39,22-92,49.17-108.17,27.46-41.06-55,50.85-231-17.59-284.44-9.91-7.74-26.45-14-44.23-14-33,0-86.75,38.29-127,80.25a6.53,6.53,0,0,1-11.18-3.63c-2.76-16.42-8.27-30.73-17.32-42.46-19.94-25.87-45.18-36.67-60.3-35.72-61.86,3.88-81.56,42.71-116.36,82.35a6.55,6.55,0,0,1-11.43-4.66c.57-26.26-2.35-48.71-13.84-60.69-20.25-21.13-54-28.65-122.36,21.43-4.29,3.15,2.43,9.58,7.88,13.33,10.28,7.07,23-3.48,30.2-3.48,38.83,0-12.67,75.77-32.13,186.48a6.81,6.81,0,0,1-2.17,3.91c-42.76,37.8-105.93,89-131.66,86.07-43.95-4.94,92.7-244.41,46.3-304.64-3-3.92-13.8-17.42-29.57-19.2-13.29-1.49-36.88.07-62,7.71a205.26,205.26,0,0,0-26.59,10.14,6.71,6.71,0,0,0-3.61,8,43.19,43.19,0,0,0,5.82,11.19c6.74,9.49,20.8-4.75,29.55,1,11.32,7.37-3.44,47.19-23,97.43a6.58,6.58,0,0,1-1.24,2c-45.13,51-143.61,156.75-183.72,156.75-39.86,0,16.31-147.46,31.63-264.76,20.05-10.16,39.64-20.41,60.8-31.3,15-7.73,40.48-41.28,20.48-40.63a622.64,622.64,0,0,0-72.4,6.6,7,7,0,0,1-4.73-6.33c-1.76-23.68-7.24-42.88-18.17-55-4.42-4.91-19.09-17.92-39.64-17.92-17.31,0-48.54,1.92-79.83,16.29A266.8,266.8,0,0,0,113.3,80.52a7.72,7.72,0,0,0-2.88,8.65c1.89,6.14,6.85,13,9.74,16.43,10,12,26.12-9.73,38.18-3.26,8.58,4.61,8.34,24,3.33,52.45-.06.32-.19.6-.28.91-42.84,13.87-89.81,32-142.91,55.43C-35.75,235,44.65,288.47,70,279.43c23.39-8.35,44.41-16.2,63.61-23.67C104.64,361.07,73.21,487.4,122.05,529.28c10.82,9.28,25.86,21.05,48.88,21.05,46.8,0,143.53-77.06,211.28-147.2,33.57-34.74,18.42-14.56,10.85,6.81-17.88,50.47-21.05,98.25.43,121.54,7.54,8.18,17.59,16.7,35.25,18.68,40.36.75,119.68-38.5,185.25-103,2.63-2.58,13.7-13.51,13.75-8.39.79,82.8,39.54,111.56,86,111.56,41,0,4.24-66.7,45.27-190.06,20.12-60.52,60.23-95.81,84.79-92.53,62.92,8.41-87.13,280,82,281.3,2.58,0,8.19-.73,11.36-2.59,30.15-17.74-5.85-40.39,18.76-158.15,12.3-58.83,51.71-119.77,85.66-119.77,8.2,0,14.08,5.24,16.41,8.41,16.41,22.43-19,96.16-5.49,193.16,2.25,16.08,8.2,47,31.11,63.41,12.62,9.06,30.3,16.82,44.18,16.82,44.74,0,92.27-53.47,111-68.66l.68-.94-.24.58-.44.36-.81,1.1-.77,3.07c.13-.26.33-.6.56-1-5.1,12.45-10.59,29-2.63,46.08,2,4.26,8.36,18.36,45.45,19.41,61,1.74,85.76-16.58,141.39-15.52,76.59,1.45,121.19,37.52,150.46-9.69,19.39-31.29-2-78.3-24.57-96.32-13-10.37-22.27-18.5-34.7,1.49-5.8,9.33,18.77,37.57-2.72,40.56-47.88,6.64-57.55-9.31-115.1-10.87-5.19-.14-22.44-.84-6-18.62,12-13,27-28.6,43.25-45.16,2.92-.58,5.76-1.21,8.49-1.93,81.54-21.23,225.64-96.15,72.45-58.48a126.77,126.77,0,0,1-24,3c36.86-37,63.94-72.08,72-79.85,19.57-19,26.78-67.58,6.18-87.64-10.53-10.26-38.33-10.75-47.39-8.45-112.3,28.51-75.82,15.59-225.79-2-44.18-5.17-63.7,34.71-64.73,46.33-3.15,35.56,21.75,65.19,39.14,77.92,7.13,5.23,17.34-1.48,17.34-11.86,0-13.41-9-18.41-1.45-26.66,25.32-27.78,90.14,15.74,165.43,10.23,14.43-1.06,7.87,10.34,2.92,14.6-20.79,17.88-45,38.87-69.74,60.75q-22.67-2.49-48.61-5.66c-19.64-2.39-32.8,34.81-23.78,44.06,8.21,8.42,27.11,7.06,24.26,10.14-15.24,16.55-36.71,35-59.72,50.87Z" transform="translate(-0.07)" style="fill:#1b1464"/><ellipse cx="504.62" cy="52.94" rx="51.65" ry="52.94" style="fill:#1b1464"/></svg>