<svg height='100px' width='100px'  fill="#e4e4e4" xmlns="http://www.w3.org/2000/svg" data-name="Layer 1" viewBox="0 0 150 150" x="0px" y="0px"><title>wip</title><path d="M57.52,71.5a24,24,0,1,0-24-24A24,24,0,0,0,57.52,71.5Zm0-40a16,16,0,1,1-16,16A16,16,0,0,1,57.52,31.5Z"></path><path d="M64.75,75.5H50.29a34.84,34.84,0,0,0-34.81,34.81V122.5a4,4,0,0,0,4,4H95.56a4,4,0,0,0,4-4V110.31A34.85,34.85,0,0,0,64.75,75.5Zm26.81,43H23.48v-8.19A26.84,26.84,0,0,1,50.29,83.5H64.75a26.84,26.84,0,0,1,26.81,26.81Z"></path><path d="M130.52,64.5h-10v-10a4,4,0,1,0-8,0v10h-10a4,4,0,1,0,0,8h10v10a4,4,0,0,0,8,0v-10h10a4,4,0,0,0,0-8Z"></path></svg>